<svg id="Layer_1" data-name="Layer 1" xmlns="http://www.w3.org/2000/svg" viewBox="0 0 1681.11 431.85"><defs><style>.cls-1{fill:#020200;}</style></defs><polygon class="cls-1" points="188 422.51 188 345.74 111.23 422.51 188 422.51"/><polygon class="cls-1" points="128.62 6.84 128.62 83.62 205.4 6.84 247.39 48.83 170.61 125.61 247.39 125.61 247.39 184.99 69.24 184.99 69.24 6.84 9.86 6.84 9.86 422.51 111.23 422.51 69.24 380.52 146.01 303.75 69.24 303.75 69.24 244.37 247.39 244.37 247.39 422.51 306.77 422.51 306.77 6.84 128.62 6.84"/><path d="M1355.85,243.89c0,9.56-6.79,16.31-16.36,16.31s-16.27-6.75-16.27-16.31,6.71-16.36,16.27-16.36S1355.85,234.33,1355.85,243.89Zm-4,0c0-7.44-5.15-12.68-12.38-12.68s-12.29,5.24-12.29,12.68,5.11,12.55,12.29,12.55S1351.87,251.29,1351.87,243.93Zm-9.26,1.78,3.94,6.58h-4.42l-3.33-6.15h-1.39v6.15h-3.8V235.62h6.49c3.42,0,5.71,2.08,5.71,5.28A5.56,5.56,0,0,1,1342.61,245.71Zm-5.2-3H1340a1.77,1.77,0,0,0,2-1.78c0-1.08-.65-1.77-2-1.77h-2.6Z"/><path d="M523.16,6.84V201.45h-36V121.23h-85v80.22h-36V6.84h36V89.45h85V6.84Z"/><path d="M586.67,6.84V201.45h-36V6.84Z"/><path d="M798.19,95.54V201.45H763V176.83c-10.85,14.56-29.12,28.6-60.36,28.6-54.28,0-94.53-41.05-94.53-101.68,0-62,44.75-101.94,101.41-101.94,36.8,0,71.76,17.74,87.91,50.57L768,72c-8.48-22.77-30.72-37.87-59-37.87-37.86,0-64.61,27.54-64.61,69.11,0,43.42,25.42,69.9,62.76,69.9,30.45,0,50.83-18.27,55.6-45.8H698.57l25.15-31.78Z"/><path d="M983,6.84V201.45H947V121.23H862v80.22H826V6.84h36V89.45h85V6.84Z"/><path d="M1058.4,201.45,1000.28,6.84h38.11L1089,176.43,1139.68,6.84h38.11l-58.12,194.61Z"/><path d="M1231.35,6.84V201.45h-36V6.84Z"/><path d="M1390.73,169.15v32.3H1256.22V6.84h134v32.3h-98V87.6h90.82v31.77h-90.82v49.78Z"/><path d="M515.75,288.27c0,38.13-28.86,60.37-65.67,60.37H402.16v73.87h-36V227.9h83.4C488.21,227.9,515.75,251.2,515.75,288.27Zm-36,0c0-16.41-11.39-28.07-30.45-28.07H402.16v56.14H449C467.82,316.34,479.74,305,479.74,288.27Z"/><path d="M733.55,324.55c0,61.16-46.33,101.94-102.73,101.94s-103-40.78-103-101.94c0-60.9,46.87-101.68,103-101.68S733.55,263.65,733.55,324.55Zm-169.45,0c0,42.1,28.06,69.63,66.72,69.63,38.92,0,66.72-27.53,66.72-69.63s-28.06-69.38-66.72-69.38C592.43,255.17,564.1,282.45,564.1,324.55Z"/><path d="M1147.58,390.21v32.3H1013.07V227.9h134v32.3h-98v48.46h90.82v31.77h-90.82v49.78Z"/><path d="M1405.44,6.84h36.81l31.56,169.59L1506.67,6.84h60.48L1600,176.43,1631.57,6.84h36.8l-38.64,194.61h-59.17L1536.91,31.86l-33.39,169.59h-59.16Z"/><path d="M734.84,227.9h36.81l31.56,169.59L836.07,227.9h60.48l32.86,169.59L961,227.9h36.8L959.13,422.51H900L866.31,252.92,832.92,422.51H773.76Z"/><path d="M1278.11,342.4c30.64-5.49,47.12-26.08,47.12-56.25,0-35.48-24.63-58.25-64.61-58.25h-89.49V422.51h36V343.87h31.24l54.81,78.64h42.1Zm-71-30.3V260.2h52.42c19.07,0,29.66,10.86,29.66,25.95,0,15.36-10.59,26-29.92,26Z"/></svg>